<svg width="18" height="34" viewBox="0 0 18 34" fill="none" xmlns="http://www.w3.org/2000/svg">
<path fill-rule="evenodd" clip-rule="evenodd" d="M17.3853 1.11528C17.5017 1.2314 17.594 1.36933 17.6571 1.5212C17.7201 1.67306 17.7525 1.83586 17.7525 2.00028C17.7525 2.1647 17.7201 2.3275 17.6571 2.47937C17.594 2.63123 17.5017 2.76917 17.3853 2.88528L3.26778 17.0003L17.3853 31.1153C17.62 31.35 17.7519 31.6683 17.7519 32.0003C17.7519 32.3322 17.62 32.6506 17.3853 32.8853C17.1506 33.12 16.8322 33.2519 16.5003 33.2519C16.1683 33.2519 15.85 33.12 15.6153 32.8853L0.615281 17.8853C0.498872 17.7692 0.406515 17.6312 0.343499 17.4794C0.280483 17.3275 0.248047 17.1647 0.248047 17.0003C0.248047 16.8359 0.280483 16.6731 0.343499 16.5212C0.406515 16.3693 0.498872 16.2314 0.615281 16.1153L15.6153 1.11528C15.7314 0.998873 15.8693 0.906516 16.0212 0.8435C16.1731 0.780484 16.3359 0.748047 16.5003 0.748047C16.6647 0.748047 16.8275 0.780484 16.9794 0.8435C17.1312 0.906516 17.2692 0.998873 17.3853 1.11528Z" fill="#545454"/>
</svg>
