<svg width="18" height="34" viewBox="0 0 18 34" fill="none" xmlns="http://www.w3.org/2000/svg">
<path fill-rule="evenodd" clip-rule="evenodd" d="M0.614792 1.11528C0.730906 0.998873 0.868845 0.906516 1.02071 0.8435C1.17257 0.780484 1.33537 0.748047 1.49979 0.748047C1.66421 0.748047 1.82701 0.780484 1.97888 0.8435C2.13074 0.906516 2.26868 0.998873 2.38479 1.11528L17.3848 16.1153C17.5012 16.2314 17.5936 16.3693 17.6566 16.5212C17.7196 16.6731 17.752 16.8359 17.752 17.0003C17.752 17.1647 17.7196 17.3275 17.6566 17.4794C17.5936 17.6312 17.5012 17.7692 17.3848 17.8853L2.38479 32.8853C2.15008 33.12 1.83173 33.2519 1.49979 33.2519C1.16785 33.2519 0.849509 33.12 0.614792 32.8853C0.380076 32.6506 0.248213 32.3322 0.248213 32.0003C0.248213 31.6683 0.380076 31.35 0.614792 31.1153L14.7323 17.0003L0.614792 2.88528C0.498384 2.76917 0.406027 2.63123 0.343011 2.47937C0.279995 2.3275 0.247559 2.1647 0.247559 2.00028C0.247559 1.83586 0.279995 1.67306 0.343011 1.5212C0.406027 1.36933 0.498384 1.2314 0.614792 1.11528Z" fill="#545454"/>
</svg>
