<svg width="188.51" height="75" viewBox="0 0 189 75" fill="none" xmlns="http://www.w3.org/2000/svg">
<g clip-path="url(#clip0)">
<path d="M27.3527 41.5626C27.3208 41.399 27.2381 41.2496 27.1162 41.1359C26.9745 41.0081 26.7878 40.9417 26.5972 40.9513C26.5049 40.9513 26.4069 40.9974 26.3146 40.9974H26.1993C25.1612 40.9974 18.2292 40.5707 16.626 40.2881C14.6833 40.0157 12.8191 39.3399 11.1531 38.3043L10.3976 37.6007C8.6041 36.0436 7.37573 33.0678 7.00088 30.8071C6.77224 29.5131 6.75666 28.1904 6.95474 26.8913C7.19119 25.6168 7.9928 24.4346 7.71022 23.1139C7.58758 22.6332 7.49132 22.1461 7.42187 21.6549C6.98527 19.5128 6.78032 17.3299 6.81056 15.1439C6.804 14.0672 6.89471 12.9921 7.08161 11.9317C7.27192 11.0839 7.83709 9.99975 7.17965 9.19813C6.76611 8.86091 6.24844 8.67748 5.71483 8.6791C4.93619 8.54101 4.14692 8.47154 3.35612 8.47149C2.60341 8.46466 1.85426 8.57557 1.13582 8.80021C0.0977622 9.08279 -0.0175781 10.0286 -0.0175781 10.9744C0.0746941 13.0447 0.40918 15.0747 0.645627 17.1047C0.914465 19.1359 0.80102 21.1994 0.311141 23.1889C0.222689 23.4334 0.160818 23.6867 0.126597 23.9444C0.0746941 24.6999 0.455316 25.5995 0.593724 26.3492C0.737899 27.295 0.830171 28.2408 0.882074 29.1808C1.00608 31.1153 0.988736 33.0563 0.830171 34.9882C0.777973 35.9578 0.675955 36.9241 0.52452 37.8833C0.457498 38.2648 0.457498 38.6551 0.52452 39.0367C0.536756 39.0367 0.548491 39.0415 0.557143 39.0502C0.565795 39.0588 0.570657 39.0706 0.570657 39.0828L0.714833 39.2731C0.997416 39.6018 1.51645 39.9363 1.70676 40.1728C6.47031 45.3112 17.4161 48.0505 24.5845 48.2466C25.1003 48.3239 25.6203 48.3701 26.1416 48.385C26.4682 48.4065 26.7946 48.3409 27.0874 48.1947C27.6641 47.9582 27.6641 47.2085 27.6641 46.6376C27.7917 44.9396 27.6869 43.2322 27.3527 41.5626Z" fill="#FF5757"/>
<path d="M30.4325 28.3043C30.3541 28.0945 30.3226 27.8701 30.3402 27.6468C30.4844 25.0517 31.7589 21.3031 32.647 18.8694C33.5502 21.064 34.2453 23.3385 34.7232 25.663C34.9135 26.5569 35.669 28.1659 34.4867 28.5868C33.955 28.7616 33.3967 28.8416 32.8374 28.8233C32.2829 28.8209 31.7294 28.7747 31.1822 28.6849C31.0782 28.6941 30.9734 28.682 30.8742 28.6492C30.7751 28.6165 30.6836 28.5639 30.6055 28.4946C30.5286 28.4517 30.4679 28.3849 30.4325 28.3043ZM41.8512 48.4023C42.9464 48.5528 44.0502 48.6317 45.1557 48.6387C46.3202 48.6578 47.4825 48.5319 48.6159 48.2639C49.8443 47.9755 49.3252 46.3723 48.8523 45.6168C46.4475 41.9375 42.7162 32.2662 42.2953 29.3423C42.0748 27.9381 42.0419 26.5108 42.1972 25.0978C42.1972 24.7691 42.3414 24.4807 42.1972 24.152C42.053 23.8233 41.8685 23.7772 41.7301 23.5753C40.6459 22.4219 39.3195 19.5384 38.7543 17.8083C38.0507 15.2132 37.4798 12.099 38.8524 9.64799C38.9005 9.60867 38.9352 9.55536 38.9518 9.49544C38.9683 9.43552 38.9658 9.37194 38.9446 9.3135C38.9446 9.17509 38.7082 9.07705 38.5179 9.03092C36.7478 8.68545 34.9462 8.52695 33.143 8.55802C31.4129 8.55802 28.564 8.60992 26.9608 9.13472C26.7705 9.22699 26.534 9.31926 26.4879 9.50958C26.4572 9.6531 26.4734 9.80268 26.534 9.93634C27.8085 13.5696 26.015 18.0967 24.5098 21.4012C24.1877 22.1414 23.7689 22.8357 23.2641 23.4657C22.9354 23.8002 22.1107 24.3193 22.2261 24.7403C22.741 26.2928 22.8384 27.9536 22.5086 29.5557C21.9093 33.0828 20.5041 36.424 18.4025 39.3193C18.2641 39.5096 18.1199 39.7922 18.3103 39.9363C18.3815 39.9781 18.4649 39.9944 18.5467 39.9825C18.7811 40.0208 19.0187 40.0362 19.256 40.0286C21.4706 40.0286 23.639 40.0286 25.8131 39.9825C26.2106 39.9926 26.6051 39.9118 26.9665 39.746C27.1452 39.6577 27.289 39.5119 27.3748 39.332C27.4606 39.1521 27.4834 38.9485 27.4394 38.7541C27.2896 38.2568 27.26 37.731 27.3529 37.2201C27.3723 36.7827 27.5039 36.3577 27.7353 35.9859C27.9666 35.6142 28.2897 35.3084 28.6736 35.0978C29.5576 34.7552 30.4822 34.5284 31.4244 34.4231C31.6893 34.38 31.9578 34.3626 32.2261 34.3712C33.2432 34.4012 34.2551 34.5287 35.248 34.7518C39.7751 35.7898 40.4844 44.9882 40.4383 46.2858C40.4383 46.5684 40.248 47.7506 40.4383 48.0159C40.5306 48.2005 40.8131 48.2524 41.015 48.2524L41.8512 48.4023Z" fill="#FF5757"/>
<path d="M67.4227 22.7852C67.0484 22.9171 66.6621 23.0117 66.2693 23.0678C66.177 23.0678 66.1309 23.0678 66.1309 23.0216C66.0328 20.6168 65.8425 18.1139 66.4134 15.7552C66.409 15.617 66.4586 15.4825 66.5518 15.3803C66.6551 15.3349 66.7683 15.317 66.8806 15.3284C67.4872 15.3283 68.0793 15.5139 68.5773 15.8604C69.0752 16.2068 69.4552 16.6974 69.666 17.2662C69.8337 17.6874 69.9292 18.1338 69.9486 18.5868C70.0207 19.1033 70.0207 19.6274 69.9486 20.1439C69.8978 20.5964 69.7441 21.0313 69.4992 21.4152C69.2543 21.799 68.9247 22.1217 68.5357 22.3584L67.4227 22.7852ZM75.3465 17.8313C74.9198 14.573 73.6164 10.5649 70.1101 9.48069C68.5824 9.049 67.0033 8.82591 65.4157 8.81749C64.1555 8.78461 62.8946 8.84823 61.6441 9.0078C60.6061 9.10007 59.3777 9.05394 59.3777 10.3746C59.4238 11.9836 59.8506 13.5349 59.9544 15.19C60.1203 17.0772 60.0719 18.977 59.8102 20.8532L59.2104 23.4657C59.1569 23.6536 59.1259 23.8472 59.1182 24.0424C59.1182 24.1347 59.1643 24.2788 59.1643 24.4173C59.6372 26.4472 59.9198 32.4911 59.9659 34.5614C59.9813 38.7577 59.7135 42.9502 59.1643 47.1104C59.1182 47.3469 59.072 47.6295 59.2104 47.7737C59.3005 47.8568 59.4168 47.9057 59.5392 47.9121C60.7719 48.2289 62.0454 48.3572 63.3165 48.2927C64.0259 48.2927 67.1862 48.0101 67.5611 47.4392C67.622 47.3573 67.6661 47.2642 67.6908 47.1652C67.7156 47.0663 67.7205 46.9634 67.7052 46.8625C67.6718 46.3071 67.5927 45.7555 67.4688 45.2131C66.9959 43.0908 66.2866 34.4115 66.6672 29.9767C66.7133 29.7402 66.6672 29.4576 66.8517 29.2673C67.0624 29.0918 67.334 29.0068 67.6072 29.0309C71.2404 28.7483 75.0178 25.9167 75.4907 22.1105C75.6053 20.6832 75.5569 19.2476 75.3465 17.8313Z" fill="#FF5757"/>
<path d="M90.7897 28.3047C90.7065 28.0961 90.6729 27.871 90.6917 27.6473C90.8358 25.0521 92.1103 21.3035 92.9985 18.8699C93.9043 21.0635 94.5994 23.3382 95.0746 25.6634C95.2649 26.5573 96.0204 28.1663 94.8381 28.5873C94.3064 28.762 93.7482 28.8421 93.1888 28.8237C92.6362 28.8216 92.0846 28.7753 91.5394 28.6853C91.4353 28.6952 91.3304 28.6834 91.2311 28.6507C91.1318 28.6179 91.0404 28.5649 90.9627 28.495C90.8838 28.4548 90.8222 28.3871 90.7897 28.3047ZM102.208 48.4027C103.302 48.5532 104.404 48.6322 105.507 48.6392C106.672 48.6586 107.834 48.5326 108.967 48.2643C110.196 47.976 109.677 46.3728 109.204 45.6173C106.764 41.9206 103.039 32.2666 102.612 29.3428C102.391 27.9385 102.36 26.5108 102.52 25.0982C102.52 24.7695 102.658 24.4812 102.52 24.1525C102.381 23.8237 102.191 23.7776 102.047 23.5758C100.963 22.4223 99.642 19.5388 99.0769 17.8087C98.3675 15.2136 97.8024 12.0994 99.1692 9.64841C99.218 9.60964 99.2533 9.55635 99.2699 9.49622C99.2865 9.4361 99.2835 9.37226 99.2614 9.31392C99.2614 9.17552 99.025 9.07748 98.8404 9.03134C97.0683 8.68615 95.265 8.52765 93.4598 8.55845C91.7297 8.55845 88.8866 8.61035 87.2776 9.13515C87.093 9.22742 86.8566 9.31969 86.8105 9.51C86.7767 9.65336 86.793 9.80393 86.8566 9.93676C88.1311 13.57 86.3376 18.0971 84.8266 21.4016C84.5122 22.142 84.099 22.8365 83.5982 23.4662C83.2695 23.8007 82.4448 24.3197 82.5602 24.7407C83.0797 26.2924 83.1772 27.9543 82.8428 29.5561C82.2455 33.0828 80.8423 36.4241 78.7424 39.3197C78.5982 39.51 78.4598 39.7926 78.6444 39.9368C78.7158 39.9782 78.7991 39.9944 78.8808 39.9829C79.1152 40.0212 79.3528 40.0367 79.5902 40.029C81.8047 40.029 83.9789 40.029 86.1473 39.9829C86.5543 39.9967 86.959 39.9158 87.3295 39.7465C87.5071 39.6572 87.6497 39.511 87.7344 39.3312C87.8191 39.1513 87.841 38.9483 87.7966 38.7545C87.6514 38.2644 87.6198 37.7477 87.7043 37.2436C87.7237 36.8062 87.8554 36.3812 88.0867 36.0094C88.318 35.6377 88.6411 35.3319 89.025 35.1213C89.9044 34.7723 90.8251 34.5377 91.7643 34.4235C92.0292 34.3804 92.2977 34.363 92.5659 34.3716C93.5812 34.4016 94.5912 34.5291 95.5821 34.7522C100.115 35.7903 100.819 44.9887 100.772 46.2862C100.772 46.5688 100.582 47.7511 100.772 48.0163C100.841 48.1008 100.93 48.1667 101.031 48.208C101.131 48.2493 101.241 48.2647 101.349 48.2528L102.208 48.4027Z" fill="#FF5757"/>
<path d="M117.947 39.3427C118.387 39.3511 118.828 39.3357 119.267 39.2966C120.067 39.149 120.842 38.8949 121.574 38.5411C122.238 38.2448 122.858 37.8565 123.414 37.3877C123.771 37.0078 124.046 36.5582 124.221 36.0671C125.087 33.6032 125.052 30.9126 124.123 28.4719C123.512 27.0071 121.24 23.8583 120.161 22.6703C119.584 22.0936 119.077 21.4419 118.558 20.8306L117.71 19.8387C117.566 19.6484 116.857 19.0832 116.857 18.8468C116.64 18.5978 116.447 18.3294 116.28 18.0451C115.948 17.3235 115.865 16.5123 116.044 15.7383C116.123 15.2903 116.339 14.8776 116.661 14.5561C116.867 14.4106 117.112 14.3303 117.364 14.3254C117.543 14.3197 117.722 14.3546 117.885 14.4275C118.049 14.5004 118.194 14.6094 118.31 14.7464C118.463 15.0043 118.563 15.2903 118.603 15.5875C118.644 15.8847 118.625 16.187 118.546 16.4765C118.428 16.8586 118.461 17.2716 118.639 17.6299C118.915 17.8628 119.27 17.9804 119.631 17.9586C120.207 18.0105 120.784 18.0105 121.361 18.0105C121.937 18.0105 122.514 18.0105 123.056 17.9586C123.598 17.9067 124.85 17.8664 124.994 17.157C125.138 16.4477 124.804 15.698 124.613 14.9425C124.192 13.3393 123.575 11.0267 122.116 10.0348C121.078 9.08897 118.575 8.76025 117.255 8.76025C111.782 8.76025 109.85 12.0186 109.758 17.0648C109.732 17.9235 109.827 18.7815 110.04 19.6138C110.617 21.3439 112.162 22.5838 113.391 23.9506C114.727 25.4738 115.899 27.1343 116.886 28.9044C117.405 29.8041 118.489 31.4534 117.924 32.5376C117.853 32.6784 117.746 32.7971 117.612 32.8805C117.479 32.964 117.325 33.009 117.168 33.0105C116.829 32.9844 116.509 32.8442 116.259 32.6128C116.01 32.3813 115.847 32.0723 115.796 31.736C115.798 31.1832 115.846 30.6315 115.94 30.0867C115.94 29.3312 115.749 29.1928 115.04 29.0486C114.242 28.9546 113.439 28.9065 112.635 28.9044C111.736 28.8973 110.837 28.9609 109.948 29.0947C109.371 29.1928 109.146 29.3773 109.192 29.9944C109.239 30.9344 109.573 31.8341 109.573 32.7741C109.711 35.7499 111.176 38.2931 114.146 39.1178C114.629 39.2143 115.119 39.2626 115.611 39.262C116.367 39.3081 117.116 39.3543 117.826 39.3543L117.947 39.3427Z" fill="#FF5757"/>
<path d="M157.289 0.749905C157.256 0.533323 157.158 0.332067 157.007 0.173204C156.837 0.0605527 156.633 0.011534 156.43 0.0347956C156.086 -0.0045724 155.739 -0.0199881 155.392 -0.0113405C151.713 -0.0113405 145.531 1.96674 142.509 4.02557C140.433 5.39235 138.973 7.48578 136.615 8.41427C136.142 8.55267 135.623 8.74298 135.15 8.84102C134.677 8.93906 134.112 9.0717 133.547 9.12361H131.817C131.674 9.13248 131.532 9.11488 131.396 9.0717C130.923 9.02557 130.45 8.9333 129.977 8.9333C129.772 8.92386 129.567 8.93935 129.366 8.97943C129.014 9.02157 128.684 9.17052 128.42 9.40619C128.337 9.60275 128.275 9.8077 128.235 10.0175C127.887 11.9516 127.869 13.931 128.183 15.871C128.235 16.1017 128.328 16.4477 128.61 16.5285H128.754C129.079 16.477 129.395 16.382 129.694 16.2459C130.189 16.1254 130.696 16.0615 131.205 16.0556C133.189 16.0556 133.235 17.5665 133.235 19.1697C133.245 20.008 133.182 20.8455 133.045 21.6726C132.907 22.4281 132.336 22.9933 132.289 23.7488C132.297 24.1221 132.378 24.4903 132.526 24.833C133.392 27.7539 133.695 30.8127 133.42 33.8468L132.993 36.9148C132.901 37.5261 132.416 39.1294 133.368 39.2216C134.385 39.354 135.41 39.4175 136.436 39.412C137.428 39.412 138.466 39.3601 139.458 39.3139C139.694 39.3139 139.977 39.2678 140.069 39.0313C140.161 38.7949 139.977 38.2759 139.931 37.9933L139.81 36.6553C139.7 35.7634 139.637 34.8664 139.619 33.9679C139.619 30.5711 139.337 27.2666 140.657 24.0602C140.717 23.9418 140.751 23.812 140.755 23.6796C140.722 23.5197 140.674 23.3633 140.611 23.2124C139.458 20.7095 139.764 18.2067 140.283 15.5654C140.653 15.4125 141.015 15.2392 141.367 15.0463C141.806 14.774 142.217 14.4591 142.595 14.1063C143.749 13.1144 144.481 11.7476 145.479 10.6461C147.785 8.19512 151.471 7.34737 154.867 7.34737C155.386 7.34737 155.905 7.34737 156.373 7.3935H156.707C156.822 7.40987 156.94 7.39922 157.05 7.36241C157.16 7.32559 157.26 7.26361 157.343 7.18138C157.425 7.09914 157.487 6.9989 157.524 6.88858C157.56 6.77826 157.571 6.66089 157.555 6.54575C157.687 4.61957 157.809 2.59535 157.289 0.749905Z" fill="#FF5757"/>
<path d="M156.816 38.6853C156.962 38.474 157.058 38.2329 157.099 37.9795C157.14 37.7262 157.124 37.4669 157.053 37.2205C156.908 35.9979 156.862 34.8156 156.724 33.6392C156.556 32.3556 156.46 31.0637 156.436 29.7695C156.436 27.5953 156.724 26.7015 157.381 24.6715C157.447 24.5409 157.485 24.3983 157.493 24.2524C157.501 24.1065 157.479 23.9606 157.427 23.8237C156.205 21.4189 156.153 18.2585 156.389 15.5654C156.512 14.3952 156.733 13.2376 157.053 12.1051C157.243 11.4477 157.9 10.375 157.525 9.7003C157.289 9.1236 153.489 8.94482 152.912 8.94482C152.064 8.94482 149.607 9.0371 149.088 9.83871C148.957 10.3007 148.941 10.7878 149.042 11.2574C149.088 11.9148 149.279 12.578 149.371 13.2355C149.615 14.5908 149.742 15.9645 149.752 17.3416C149.818 19.458 149.498 21.5688 148.806 23.57C148.658 23.8451 148.577 24.1514 148.569 24.4639C148.576 24.6257 148.609 24.7854 148.667 24.9368C149.678 28.1048 149.876 31.476 149.244 34.7407C149.024 35.5315 148.851 36.3345 148.725 37.1455C148.61 37.553 148.642 37.9882 148.817 38.3739C148.915 38.5578 149.049 38.7197 149.212 38.8497C149.375 38.9796 149.562 39.0748 149.763 39.1294C150.175 39.2587 150.606 39.321 151.038 39.3139C151.649 39.3658 152.26 39.3658 152.831 39.3658C153.65 39.3946 156.205 39.2966 156.816 38.6853Z" fill="#FF5757"/>
<path d="M188.142 41.5631C188.11 41.3995 188.028 41.2501 187.906 41.1364C187.764 41.0086 187.577 40.9422 187.387 40.9518C187.294 40.9518 187.196 40.9979 187.104 40.9979H187.006C185.974 40.9979 179.036 40.5712 177.433 40.2886C175.49 40.0162 173.626 39.3404 171.96 38.3048L171.204 37.6012C169.411 36.0441 168.183 33.0683 167.808 30.8076C167.579 29.5136 167.563 28.1909 167.762 26.8918C167.998 25.6173 168.8 24.4351 168.517 23.1144C168.394 22.6342 168.299 22.147 168.234 21.6554C167.793 19.5139 167.586 17.3307 167.617 15.1444C167.618 14.0675 167.712 12.9927 167.9 11.9322C168.09 11.0845 168.655 10.0003 167.998 9.19865C167.584 8.86142 167.067 8.678 166.533 8.67962C165.755 8.53185 164.966 8.45273 164.174 8.44317C163.422 8.43634 162.673 8.54725 161.954 8.77189C160.916 9.05447 160.801 10.0003 160.801 10.9461C160.893 13.0164 161.228 15.0464 161.464 17.0764C161.738 19.1065 161.631 21.17 161.147 23.1606C161.058 23.4051 160.996 23.6583 160.962 23.9161C160.91 24.6715 161.291 25.5712 161.429 26.3209C161.574 27.2667 161.666 28.2125 161.718 29.1525C161.842 31.087 161.824 33.0279 161.666 34.9599C161.607 35.9395 161.497 36.9155 161.337 37.8838C161.27 38.2653 161.27 38.6556 161.337 39.0372C161.349 39.0372 161.361 39.042 161.37 39.0507C161.378 39.0593 161.383 39.0711 161.383 39.0833L161.527 39.2736C161.81 39.6023 162.329 39.9368 162.519 40.1733C167.283 45.3117 178.229 48.051 185.397 48.2471C185.913 48.3244 186.433 48.3706 186.954 48.3855C187.281 48.407 187.607 48.3414 187.9 48.1952C188.477 47.9587 188.477 47.209 188.477 46.6381C188.597 44.9391 188.484 43.2317 188.142 41.5631Z" fill="#FF5757"/>
<path d="M59.7169 74.9479C59.8378 74.9222 59.9436 74.8496 60.011 74.7461C60.1062 74.642 60.1806 74.5206 60.2302 74.3885C60.2821 74.2617 60.3225 74.106 60.3686 73.9791C60.5128 73.5927 60.6223 73.1832 60.7377 72.7795C60.853 72.3759 60.9684 71.9664 61.0779 71.5569C61.3605 70.64 61.9199 68.6734 62.387 67.2432C62.6792 66.3897 62.9907 65.5112 63.3213 64.6077C63.9102 62.9673 64.6597 61.3891 65.5589 59.896C65.8894 59.3636 66.3021 58.8867 66.7815 58.4831C66.889 58.3777 67.0222 58.3021 67.1679 58.264C67.4043 58.2178 67.5774 58.3793 67.7446 58.7369C67.8737 59.0526 67.9479 59.3881 67.9637 59.7288C68.0964 62.4162 67.387 65.6284 65.3859 67.5604C65.1731 67.7815 64.9257 67.9665 64.6535 68.1083C64.3478 68.1659 64.1287 68.1371 64.0768 67.7911C64.0182 67.5393 64.024 67.2769 64.0935 67.0279C64.1631 66.779 64.2941 66.5516 64.4747 66.3666C64.5554 66.2801 64.6419 66.2167 64.7169 66.1244L64.9591 65.8649C64.9924 65.8205 65.0112 65.767 65.013 65.7116C65.0149 65.6562 64.9997 65.6015 64.9695 65.555C64.9393 65.5085 64.8956 65.4723 64.8443 65.4514C64.7929 65.4305 64.7364 65.4259 64.6823 65.4381H64.59C64.59 65.4381 64.5439 65.4381 64.5266 65.4727C64.1771 65.7005 63.8897 66.0116 63.6904 66.3782C63.5328 66.6453 63.4402 66.9458 63.4202 67.2554C63.4002 67.565 63.4532 67.8749 63.575 68.1602C63.6026 68.269 63.6524 68.3711 63.7211 68.4599C63.7898 68.5488 63.8761 68.6225 63.9745 68.6766C64.0729 68.7307 64.1815 68.764 64.2933 68.7743C64.4052 68.7847 64.5179 68.7719 64.6246 68.7369C65.778 68.5119 67.0526 66.6319 67.5082 65.6054C68.3294 63.7853 68.6861 61.7899 68.5462 59.798C68.5451 59.6335 68.5297 59.4695 68.5001 59.3078C68.4508 59.1491 68.4122 58.9872 68.3847 58.8234C68.3344 58.5679 68.2302 58.3261 68.0791 58.114C67.9811 57.9421 67.8313 57.8055 67.6511 57.7237C67.4709 57.6419 67.2696 57.6191 67.0756 57.6584C67.0064 57.6584 66.8968 57.7161 66.7354 57.768C65.8357 58.2063 64.9303 59.6077 64.0479 61.3897C63.6212 62.2893 63.206 63.2601 62.8023 64.302C62.0295 66.3955 61.349 68.4543 60.8242 70.2363C60.5647 71.1302 60.3513 71.8914 60.2013 72.4739C60.0975 72.8026 60.011 73.1083 59.9015 73.4197C59.9015 73.4947 59.8553 73.5466 59.8092 73.5581C59.7978 73.5647 59.7849 73.5681 59.7717 73.5681C59.7585 73.5681 59.7456 73.5647 59.7342 73.5581C59.7054 73.5581 59.6708 73.5004 59.6535 73.3851C59.6359 73.3072 59.6359 73.2265 59.6535 73.1486C59.4908 70.9443 59.5372 68.7295 59.7919 66.5339C60.0309 64.3525 60.3929 62.1865 60.8761 60.046C60.928 59.821 60.9741 59.5731 61.026 59.3424C61.0779 59.1117 61.1298 58.8926 61.1644 58.6676C61.1875 58.5496 61.1875 58.4282 61.1644 58.3101C61.1356 58.1486 61.003 58.0967 60.8415 58.1313C60.7976 58.1399 60.7585 58.1646 60.7319 58.2005C60.6742 58.3793 60.605 58.535 60.5474 58.7138C59.9458 61.2237 59.4971 63.7678 59.2037 66.332C58.8974 68.9089 58.8665 71.511 59.1114 74.0944C59.1534 74.1796 59.1807 74.2712 59.1921 74.3655C59.1984 74.4779 59.2279 74.5879 59.2786 74.6884C59.3125 74.7742 59.3739 74.8463 59.4533 74.8933C59.5327 74.9403 59.6254 74.9595 59.7169 74.9479Z" fill="#FF5757"/>
<path d="M70.8994 67.6181H70.8706C70.8479 66.6351 71.1635 65.6742 71.7645 64.8961C71.8885 64.7192 72.0636 64.5844 72.2662 64.5097C72.386 64.494 72.5078 64.512 72.618 64.5616C72.6773 64.5838 72.7259 64.6278 72.7537 64.6846C72.7816 64.7414 72.7867 64.8068 72.768 64.8672C72.766 64.8929 72.7588 64.9178 72.7469 64.9406C72.735 64.9634 72.7187 64.9836 72.6988 64.9999C72.2522 65.8936 71.7252 66.7449 71.1244 67.5431C71.0943 67.5708 71.0587 67.5919 71.02 67.6048C70.9812 67.6177 70.9401 67.6222 70.8994 67.6181ZM70.8533 68.4947C71.1532 68.437 71.4819 68.0333 71.6549 67.8084C72.1292 67.1606 72.5608 66.4825 72.9467 65.7784C73.0167 65.6839 73.0784 65.5836 73.1313 65.4785C73.2064 65.3565 73.3091 65.2538 73.4312 65.1786C73.3691 65.8167 73.3885 66.4601 73.4888 67.0933C73.5754 67.5316 73.806 67.7277 74.1982 67.67C74.2711 67.6637 74.3418 67.6421 74.4058 67.6066C75.3458 67.2605 76.7126 65.3863 77.2374 64.5846L77.3124 64.4751C77.3124 64.4462 77.3124 64.4232 77.3412 64.3943C77.3412 64.2271 77.3124 64.1117 77.1855 64.0656C77.1335 64.0293 77.0693 64.0148 77.0067 64.0252C77.0067 64.0252 76.9664 64.0598 76.9029 64.0944C76.8427 64.148 76.7886 64.2079 76.7414 64.2732C76.6838 64.354 76.6261 64.4116 76.5684 64.4981C76.4024 64.6802 76.2483 64.8729 76.1071 65.0748C75.9514 65.2709 75.8014 65.4958 75.6226 65.6977C75.3994 65.9797 75.1545 66.2438 74.8902 66.4878C74.6999 66.6435 74.5096 66.7761 74.3135 66.9088C74.3135 66.9088 74.2732 66.9433 74.227 66.9491C74.1809 66.9549 74.0713 66.9087 74.0482 66.7703C73.8522 65.7726 74.2443 63.9387 74.5154 62.9756C74.5374 62.8531 74.5722 62.7333 74.6192 62.6181C74.648 62.52 74.6711 62.4162 74.6999 62.2894C74.6999 62.0702 74.6711 61.9087 74.4923 61.8511H74.3424C74.2379 61.8926 74.1519 61.9704 74.1001 62.0702C74.0504 62.154 74.0098 62.243 73.979 62.3355C73.9271 62.4393 73.8983 62.5431 73.8464 62.6239C73.7426 62.8372 73.6388 63.0506 73.558 63.2582C73.4773 63.4658 73.3504 63.6792 73.2409 63.8695C73.1313 64.0598 73.114 64.0887 73.0679 64.0944C72.9884 64.0781 72.911 64.0529 72.8372 64.0195C72.6109 63.8877 72.3465 63.8369 72.0875 63.8753C71.807 63.9371 71.5577 64.0965 71.3839 64.3251C71.2696 64.4328 71.1723 64.5573 71.0955 64.6942C70.4328 65.6838 70.1277 66.8699 70.2305 68.0564C70.3285 68.4024 70.5477 68.5523 70.8533 68.4947Z" fill="#FF5757"/>
<path d="M78.3963 70.3519C78.3732 70.362 78.3472 70.3628 78.3236 70.3542C78.3 70.3456 78.2806 70.3283 78.2694 70.3058C78.2409 70.2859 78.217 70.2601 78.1991 70.2303C78.1812 70.2005 78.1698 70.1673 78.1656 70.1328C78.1488 70.1098 78.137 70.0836 78.131 70.0558C78.1251 70.0279 78.1251 69.9992 78.131 69.9713C78.2605 69.3392 78.5641 68.756 79.0076 68.2874C79.0691 68.6293 79.0599 68.9802 78.9805 69.3184C78.9012 69.6566 78.7534 69.975 78.5462 70.2539C78.5316 70.2816 78.5102 70.3052 78.4839 70.3223C78.4577 70.3395 78.4275 70.3497 78.3963 70.3519ZM78.477 71.0151C79.4978 70.8133 79.8265 68.7833 79.7054 67.7914C79.7015 67.6385 79.728 67.4863 79.7834 67.3437C79.8389 67.2011 79.9221 67.071 80.0283 66.9609L81.6892 65.2308C82.1852 64.6541 82.6869 64.1697 83.229 63.6103C83.3549 63.4903 83.4567 63.3474 83.5289 63.1893C83.627 63.0509 83.5808 62.9413 83.4194 62.8491C83.3938 62.8308 83.3646 62.8183 83.3337 62.8123C83.3029 62.8063 83.2711 62.8071 83.2406 62.8145C83.1651 62.829 83.0964 62.8674 83.0445 62.924C83.0004 62.9973 82.939 63.0587 82.8657 63.1028L79.9822 66.1132C79.8911 66.2167 79.7886 66.3096 79.6766 66.39C79.6186 66.3339 79.5664 66.272 79.5208 66.2055C79.2819 65.3865 78.997 64.5817 78.6673 63.7948C78.6203 63.6786 78.5817 63.5591 78.552 63.4373C78.5226 63.3125 78.5071 63.1849 78.5058 63.0567C78.4548 62.6276 78.5661 62.1949 78.818 61.8438C79.0699 61.4926 79.444 61.2485 79.8669 61.1593C79.9164 61.1569 79.9642 61.1409 80.0053 61.1132C80.0374 61.0915 80.0637 61.0623 80.0819 61.0282C80.1001 60.994 80.1096 60.9558 80.1096 60.9171C80.1096 60.8784 80.1001 60.8402 80.0819 60.8061C80.0637 60.7719 80.0374 60.7427 80.0053 60.721C79.9229 60.6616 79.8271 60.6237 79.7264 60.6106C79.6257 60.5975 79.5234 60.6097 79.4286 60.6461C79.1732 60.6935 78.9369 60.8136 78.7481 60.9921C78.3934 61.3133 78.1338 61.7257 77.9975 62.1843C77.8613 62.643 77.8536 63.1303 77.9753 63.593C78.0496 63.8938 78.146 64.1887 78.2636 64.4754C78.559 65.1271 78.7871 65.8073 78.9441 66.5053C79.0042 66.6887 79.0156 66.8845 78.9772 67.0735C78.9388 67.2626 78.8519 67.4384 78.725 67.5838C78.1032 68.2752 77.6911 69.1293 77.537 70.0463C77.5217 70.2423 77.5693 70.4381 77.6731 70.6051C77.7768 70.7721 77.9312 70.9017 78.1137 70.9748C78.2305 71.0143 78.3544 71.0281 78.477 71.0151Z" fill="#FF5757"/>
<path d="M85.2308 69.4927C85.4282 69.4274 85.6102 69.3227 85.7659 69.1849C85.9215 69.0471 86.0475 68.8791 86.1362 68.6911C86.7129 67.6934 87.3242 66.3843 87.8663 65.2309C88.345 64.2274 88.9736 62.8779 89.3312 62.232C89.3478 62.2111 89.3599 62.187 89.3668 62.1612C89.3738 62.1354 89.3754 62.1085 89.3715 62.0821C89.3849 62.0514 89.392 62.0184 89.3926 61.985C89.3931 61.9515 89.3871 61.9183 89.3748 61.8872C89.3624 61.8562 89.3441 61.8278 89.3208 61.8039C89.2975 61.7799 89.2696 61.7608 89.2389 61.7476C89.1815 61.7404 89.1233 61.7404 89.0659 61.7476H89.0197C89.0197 61.7764 89.0197 61.7764 88.9794 61.7764C88.8821 61.8388 88.7995 61.9214 88.7372 62.0186C88.6853 62.1224 88.6103 62.232 88.5584 62.3416C88.0163 63.1432 86.563 66.5976 85.8306 68.0106L85.5999 68.4489C85.505 68.6031 85.3575 68.7178 85.1847 68.7718C84.781 68.5642 84.8156 68.1201 84.7752 67.7684C84.678 66.9784 84.6433 66.182 84.6714 65.3866C84.8165 63.1684 85.0977 60.9613 85.5134 58.7776C85.5401 58.6345 85.6094 58.5028 85.7124 58.3998C85.8153 58.2969 85.947 58.2275 86.0901 58.2009L90.9921 56.7995C91.1016 56.7534 91.1939 56.736 91.2804 56.6957C91.3818 56.6713 91.4803 56.6365 91.5745 56.5919C91.6173 56.5657 91.6498 56.5256 91.6665 56.4784C91.6833 56.4312 91.6834 56.3796 91.6668 56.3324C91.6149 56.1767 91.5284 56.119 91.4361 56.1363L90.8594 56.2459L90.5826 56.2978C89.9425 56.4938 89.262 56.6957 88.5065 56.8745C87.751 57.0532 87.0763 57.2955 86.4361 57.4858H86.3208C86.2816 57.5139 86.236 57.5317 86.1881 57.5377C86.0845 57.547 85.9803 57.547 85.8767 57.5377C85.8506 57.4257 85.8506 57.3093 85.8767 57.1974C85.8767 57.1282 85.9171 57.0244 85.9286 56.9494C86.1074 56.2689 86.2919 55.6057 86.4246 54.931C86.4848 54.7592 86.4848 54.5721 86.4246 54.4004C86.4048 54.356 86.3708 54.3195 86.3281 54.2966C86.2853 54.2736 86.236 54.2655 86.1881 54.2735C86.0267 54.3081 85.8883 54.4754 85.7787 54.7868C85.6956 54.9882 85.6244 55.1942 85.5653 55.4039C85.4846 55.6115 85.4269 55.8191 85.3462 56.0267L84.9886 57.5377C84.9627 57.6616 84.9016 57.7754 84.8126 57.8654C84.7236 57.9554 84.6105 58.0179 84.4869 58.0452L83.2816 58.42C82.8721 58.5469 82.4684 58.6738 82.0647 58.8237L81.7302 58.9621C81.638 59.0025 81.5572 59.0659 81.4476 59.1121C81.3381 59.1582 81.3265 59.2505 81.3784 59.3889C81.3964 59.423 81.4241 59.451 81.4579 59.4695C81.4918 59.4879 81.5303 59.496 81.5688 59.4927C81.6546 59.5083 81.7425 59.5083 81.8283 59.4927C82.024 59.4449 82.2166 59.3852 82.405 59.3139C82.6991 59.2274 83.0163 59.1236 83.3335 59.014C83.6507 58.9044 83.9102 58.8006 84.2389 58.7141L84.4234 58.6795C84.7003 58.6276 84.7464 58.7372 84.7002 59.1063C84.6541 59.4754 84.5676 59.9252 84.4926 60.3981C84.1293 62.6357 83.766 65.9979 84.1985 68.247C84.3254 68.8006 84.6253 69.6023 85.2308 69.4927Z" fill="#FF5757"/>
<path d="M90.4559 62.8086C90.4559 62.8374 90.3867 62.8086 90.3117 62.8086C90.2367 62.8086 90.2598 62.7682 90.2425 62.699C90.3578 61.932 90.923 60.6229 91.667 60.3576C91.7765 60.3115 91.8573 60.3576 91.9092 60.5018C92.0533 61.2515 90.998 62.3703 90.4559 62.8086ZM91.2171 65.6229C92.8146 65.3115 94.7927 62.4799 95.675 61.0785C95.7402 61.0005 95.7892 60.9103 95.8192 60.8132C95.8414 60.7502 95.8396 60.6812 95.814 60.6195C95.7885 60.5577 95.741 60.5076 95.6808 60.4787C95.6552 60.4604 95.6262 60.4474 95.5955 60.4405C95.5648 60.4336 95.533 60.4329 95.502 60.4384C95.437 60.4582 95.379 60.4962 95.3348 60.5479L95.1618 60.7959C95.1098 60.8766 95.0291 60.9632 94.9714 61.0497C94.7465 61.3553 94.5159 61.6667 94.3082 61.9724C94.1006 62.278 93.8584 62.6125 93.6277 62.9182C93.0196 63.7902 92.208 64.5009 91.2633 64.9885C90.8192 65.0693 90.5655 65.1212 90.3694 64.6079C90.2068 64.3734 90.1276 64.0911 90.1445 63.8063C90.1411 63.7561 90.153 63.706 90.1788 63.6627C90.2045 63.6194 90.2429 63.585 90.2886 63.5641C90.9112 63.2866 91.4485 62.8479 91.8449 62.2933C92.2413 61.7388 92.4825 61.0884 92.5435 60.4095C92.5504 60.3001 92.5314 60.1905 92.488 60.0898C92.4446 59.989 92.3781 59.8999 92.2938 59.8297C92.2096 59.7595 92.1099 59.7101 92.003 59.6856C91.8961 59.6611 91.7849 59.6621 91.6785 59.6886H91.5862C91.5862 59.6886 91.5228 59.7233 91.4997 59.729C90.3059 60.15 89.7177 61.9493 89.5332 63.1142C89.4835 63.4791 89.4971 63.8498 89.5735 64.21C89.6164 64.4817 89.7167 64.7412 89.8676 64.9712C89.9721 65.2275 90.1679 65.436 90.4172 65.5564C90.6664 65.6767 90.9514 65.7004 91.2171 65.6229Z" fill="#FF5757"/>
<path d="M97.7913 56.7303C97.7472 56.6575 97.7183 56.5766 97.7065 56.4923C97.6946 56.408 97.6999 56.3223 97.7221 56.2401C97.9425 55.0278 98.2686 53.8372 98.6968 52.6819C98.766 52.5492 98.8236 52.4685 98.8928 52.4512H99.037C99.0269 52.4426 99.0185 52.432 99.0126 52.4201C99.0066 52.4082 99.0032 52.3953 99.0024 52.382C99.0024 52.382 99.0024 52.382 99.037 52.4281L98.6564 53.8007C98.3623 54.7695 98.0797 55.7384 97.8144 56.6842C97.8144 56.6842 97.7913 56.7072 97.7913 56.7303ZM97.7567 66.6438C98.2239 66.5515 98.8121 65.623 98.9909 65.179C99.3542 64.435 99.7348 63.6623 100.104 62.8722C100.473 62.0821 100.836 61.3093 101.205 60.5654C101.28 60.3578 101.384 60.1213 101.436 59.9195C101.463 59.8761 101.481 59.8274 101.488 59.7767C101.495 59.726 101.491 59.6745 101.476 59.6254C101.485 59.5727 101.473 59.5189 101.443 59.4748C101.413 59.4308 101.367 59.4001 101.315 59.3889C101.258 59.3811 101.199 59.3811 101.142 59.3889C100.98 59.3889 100.842 59.833 100.796 59.9656C100.046 61.5746 99.1812 63.4258 98.3623 65.0521C98.2758 65.2367 97.947 65.8768 97.7337 65.9172C97.6826 65.928 97.6292 65.9192 97.5843 65.8925C97.5395 65.8658 97.5063 65.8231 97.4915 65.773C97.2699 65.3378 97.1608 64.854 97.1743 64.3658C97.0128 62.9068 96.8456 60.3289 97.4223 58.9333C98.1777 57.1282 99.5272 53.4085 99.5906 51.4708C99.5906 51.2805 99.5157 51.1017 99.2908 51.0498C99.1927 51.0498 99.1408 51.0498 99.1178 51.0498C99.0008 51.0843 98.8979 51.155 98.8236 51.2516C97.5318 53.1605 96.909 56.9091 96.6206 59.1525C96.6017 59.6933 96.4742 60.2248 96.2458 60.7153C96.1996 60.7645 96.1738 60.8295 96.1738 60.897C96.1738 60.9645 96.1996 61.0294 96.2458 61.0786C96.5053 61.292 96.4649 61.5861 96.4419 61.8572C96.4106 62.9383 96.484 64.0198 96.661 65.0867C96.661 65.1559 96.6956 65.2713 96.7187 65.4097C96.747 65.5577 96.7836 65.704 96.8283 65.848C96.9724 66.1709 97.3185 66.7188 97.7567 66.6438Z" fill="#FF5757"/>
<path d="M102.555 60.4731C102.555 60.5019 102.486 60.4731 102.411 60.4731C102.336 60.4731 102.359 60.4327 102.342 60.3635C102.457 59.5965 103.022 58.2874 103.766 58.0221C103.876 57.9759 103.956 58.0221 104.008 58.1663C104.152 58.916 103.097 60.0348 102.555 60.4731ZM103.316 63.2874C104.914 62.976 106.892 60.1443 107.774 58.743C107.839 58.665 107.888 58.5748 107.918 58.4777C107.941 58.4147 107.939 58.3457 107.913 58.2839C107.888 58.2222 107.84 58.1721 107.78 58.1432C107.755 58.1254 107.727 58.1126 107.697 58.1057C107.668 58.0987 107.637 58.0978 107.607 58.1028C107.54 58.1223 107.48 58.1603 107.434 58.2124L107.267 58.4604C107.209 58.5411 107.128 58.6276 107.071 58.7141C106.846 59.0198 106.615 59.3312 106.407 59.6368C106.2 59.9425 105.958 60.277 105.727 60.5826C105.119 61.4547 104.307 62.1653 103.362 62.653C102.918 62.7337 102.665 62.7856 102.468 62.2724C102.306 62.0379 102.227 61.7556 102.244 61.4708C102.24 61.4205 102.252 61.3704 102.278 61.3272C102.304 61.2839 102.342 61.2495 102.388 61.2285C103.009 60.9489 103.544 60.5087 103.939 59.9531C104.333 59.3976 104.572 58.7469 104.631 58.0682C104.638 57.9587 104.619 57.8492 104.576 57.7484C104.532 57.6477 104.466 57.5586 104.381 57.4884C104.297 57.4182 104.197 57.3688 104.091 57.3443C103.984 57.3198 103.872 57.3208 103.766 57.3473H103.674C103.674 57.3762 103.61 57.3819 103.587 57.3877C102.393 57.8087 101.805 59.608 101.621 60.7729C101.573 61.1381 101.589 61.5088 101.667 61.8687C101.705 62.1408 101.803 62.4009 101.955 62.6299C102.059 62.8899 102.256 63.1015 102.508 63.2232C102.76 63.3449 103.048 63.3678 103.316 63.2874Z" fill="#FF5757"/>
<path d="M108.863 63.6331C108.929 63.6202 108.99 63.5905 109.04 63.5471C109.091 63.5036 109.129 63.4479 109.152 63.3852C109.265 63.1258 109.358 62.8577 109.429 62.5835C109.561 62.151 109.677 61.7416 109.792 61.3379C109.907 60.9342 109.994 60.5305 110.109 60.121C110.273 59.5243 110.528 58.9564 110.865 58.4371C110.892 58.3604 110.939 58.292 111.001 58.2385C111.062 58.185 111.137 58.1482 111.216 58.1314C111.295 58.205 111.367 58.2861 111.43 58.3736C111.5 58.4642 111.581 58.5455 111.672 58.6158C111.806 58.7537 111.972 58.856 112.155 58.9134C112.338 58.9708 112.533 58.9815 112.722 58.9446C113.368 58.8177 114.192 57.8661 114.55 57.3413C114.62 57.2377 114.67 57.1225 114.7 57.0011C114.713 56.9497 114.708 56.8952 114.686 56.8469C114.664 56.7985 114.626 56.7593 114.579 56.7358C114.517 56.7031 114.446 56.6909 114.377 56.7012C114.331 56.7012 114.308 56.7012 114.29 56.7416C114.192 56.8263 114.105 56.9232 114.031 57.0299C113.702 57.4336 113.021 58.2641 112.6 58.3448C112.476 58.3553 112.352 58.3319 112.24 58.277C112.128 58.2222 112.034 58.1379 111.966 58.0334C111.893 57.9583 111.834 57.8703 111.793 57.7739C111.736 57.6957 111.674 57.6206 111.609 57.5489C111.551 57.4745 111.475 57.4169 111.388 57.3823C111.3 57.3478 111.205 57.3376 111.113 57.3529C111.017 57.3772 110.927 57.4204 110.847 57.4797C110.233 58.1085 109.795 58.8883 109.579 59.7404L109.002 61.7473C108.868 61.5241 108.824 61.2577 108.881 61.0034C108.939 60.228 109.048 59.4573 109.209 58.6966C109.331 58.1948 109.452 57.6931 109.544 57.1914C109.578 57.0162 109.578 56.836 109.544 56.6608C109.544 56.5397 109.486 56.4763 109.336 56.459H109.267C109.19 56.4698 109.121 56.5089 109.071 56.5686C109.025 56.6876 108.984 56.8088 108.95 56.9319C108.44 58.8105 108.201 60.7525 108.241 62.6989C108.242 62.8017 108.254 62.9041 108.275 63.0045C108.313 63.1014 108.34 63.2019 108.356 63.3044C108.375 63.3837 108.419 63.4548 108.481 63.5077C108.543 63.5605 108.621 63.5923 108.702 63.5985C108.702 63.5985 108.748 63.5985 108.754 63.5985L108.863 63.6331Z" fill="#FF5757"/>
<path d="M116.165 55.2537C116.262 55.2008 116.345 55.1256 116.407 55.0344C116.469 54.9431 116.509 54.8384 116.522 54.7289C116.58 54.5271 116.868 53.414 116.938 53.1603C116.961 53.0773 116.976 52.9923 116.984 52.9065V52.7912C116.938 52.6816 116.874 52.6182 116.805 52.6124C116.736 52.6067 116.753 52.6124 116.707 52.6124C116.656 52.6187 116.609 52.6433 116.574 52.6816C116.449 52.8033 116.37 52.9641 116.349 53.1372C116.222 53.5928 115.946 54.6597 115.882 54.8673C115.873 54.9459 115.873 55.0252 115.882 55.1038C115.903 55.1588 115.943 55.2044 115.995 55.232C116.047 55.2596 116.108 55.2673 116.165 55.2537ZM116.528 60.8823C117.16 60.6687 117.698 60.2427 118.051 59.677C118.863 58.6095 119.561 57.4594 120.132 56.2456C120.189 56.1624 120.22 56.0639 120.219 55.9631C120.224 55.9103 120.213 55.8571 120.188 55.8107C120.162 55.7642 120.123 55.7269 120.075 55.7035C120.05 55.684 120.021 55.6702 119.99 55.6632C119.959 55.6562 119.927 55.6562 119.896 55.6632C119.854 55.6725 119.817 55.6972 119.792 55.7324C119.691 55.8432 119.602 55.9651 119.527 56.0957C119.383 56.3437 119.239 56.609 119.118 56.8512C118.996 57.0934 118.852 57.3587 118.708 57.6009C118.301 58.3111 117.838 58.988 117.324 59.6251C117.107 59.8848 116.835 60.0935 116.528 60.2364C116.269 60.2826 116.124 60.2883 116.009 60.0461C115.924 59.864 115.869 59.6692 115.848 59.4694C115.792 58.3102 115.876 57.1486 116.096 56.0092C116.104 55.9558 116.091 55.9012 116.06 55.857C116.029 55.8128 115.982 55.7826 115.928 55.7728C115.873 55.7646 115.817 55.7646 115.761 55.7728C115.695 55.7897 115.634 55.8258 115.588 55.8766C115.098 56.5974 115.207 58.5236 115.242 59.5732C115.276 59.8594 115.362 60.1369 115.496 60.3921C115.587 60.5734 115.735 60.7196 115.917 60.8082C116.1 60.8969 116.306 60.9229 116.505 60.8823H116.528Z" fill="#FF5757"/>
<path d="M120.923 57.9645C120.923 57.9645 120.923 57.9645 120.894 57.9645H120.865C120.828 56.9618 121.145 55.9779 121.759 55.1848C121.884 55.0095 122.059 54.8767 122.261 54.8042C122.379 54.788 122.499 54.8061 122.607 54.8561C122.667 54.8771 122.717 54.9207 122.746 54.9776C122.775 55.0346 122.781 55.1005 122.763 55.1617C122.755 55.2122 122.73 55.2588 122.693 55.2944C122.246 56.1887 121.717 57.04 121.113 57.8376C121.092 57.8709 121.064 57.8993 121.032 57.9212C120.999 57.943 120.962 57.9578 120.923 57.9645ZM120.871 58.8353C121.177 58.7776 121.505 58.3797 121.678 58.1548C122.152 57.5061 122.583 56.8281 122.97 56.1248C123.039 56.0294 123.101 55.9292 123.155 55.8249C123.228 55.7016 123.331 55.5986 123.455 55.525C123.393 56.1631 123.412 56.8065 123.512 57.4397C123.599 57.878 123.83 58.0741 124.222 58.0164C124.293 58.0112 124.362 57.9894 124.424 57.9529C125.369 57.6012 126.73 55.7326 127.255 54.931L127.33 54.8215C127.33 54.8215 127.33 54.7696 127.365 54.7407C127.365 54.5677 127.336 54.4581 127.203 54.412C127.179 54.3925 127.151 54.3788 127.121 54.3718C127.091 54.3648 127.06 54.3647 127.03 54.3716C127.03 54.3716 126.99 54.4062 126.921 54.4408C126.865 54.4953 126.813 54.5531 126.765 54.6138C126.707 54.7004 126.644 54.758 126.592 54.8445C126.424 55.0252 126.27 55.218 126.131 55.4212C125.975 55.6173 125.825 55.8364 125.646 56.0383C125.421 56.3221 125.174 56.5882 124.908 56.8341C124.723 56.9899 124.533 57.1225 124.331 57.2551C124.331 57.2551 124.291 57.2551 124.245 57.2955C124.199 57.3359 124.089 57.2551 124.066 57.1167C123.87 56.119 124.262 54.2851 124.533 53.322C124.555 53.2001 124.588 53.0805 124.631 52.9645C124.66 52.8607 124.689 52.7626 124.712 52.6358C124.741 52.4166 124.712 52.2551 124.51 52.1975C124.46 52.1926 124.41 52.1926 124.36 52.1975C124.254 52.2383 124.166 52.3161 124.112 52.4166C124.068 52.5003 124.029 52.587 123.997 52.6761C123.958 52.7773 123.911 52.8755 123.858 52.9702C123.753 53.1747 123.659 53.3845 123.576 53.5989C123.472 53.8122 123.368 54.0256 123.259 54.2159C123.149 54.4062 123.132 54.4293 123.086 54.4408C123.006 54.4253 122.929 54.4001 122.855 54.3659C122.63 54.2304 122.364 54.1794 122.105 54.2217C121.824 54.2815 121.574 54.4414 121.402 54.6715C121.284 54.7777 121.185 54.9024 121.108 55.0406C120.449 56.0322 120.145 57.2167 120.243 58.4028C120.352 58.7488 120.571 58.8987 120.871 58.8353Z" fill="#FF5757"/>
<path d="M120.721 57.8317H120.693C120.672 56.8508 120.987 55.8923 121.586 55.1155C121.709 54.937 121.884 54.8018 122.088 54.7291C122.206 54.7126 122.326 54.7307 122.434 54.781C122.495 54.8021 122.545 54.8454 122.575 54.9021C122.605 54.9588 122.612 55.0247 122.596 55.0866C122.586 55.1379 122.56 55.1845 122.521 55.2193C122.073 56.1136 121.544 56.9649 120.941 57.7625C120.879 57.8132 120.801 57.838 120.721 57.8317V57.8317ZM120.675 58.7083C120.981 58.6506 121.31 58.247 121.483 58.022C121.953 57.3736 122.385 56.6977 122.774 55.9978C122.843 55.9004 122.905 55.7983 122.959 55.6922C123.033 55.5708 123.136 55.4698 123.259 55.3981C123.197 56.0342 123.216 56.6757 123.317 57.3069C123.403 57.7452 123.634 57.9413 124.026 57.8836C124.097 57.8784 124.166 57.8567 124.228 57.8202C125.168 57.4684 126.535 55.5999 127.059 54.7983L127.134 54.6887C127.134 54.6887 127.134 54.6368 127.169 54.608C127.169 54.4407 127.14 54.3254 127.007 54.2793C126.983 54.2608 126.955 54.248 126.925 54.242C126.895 54.2361 126.864 54.2369 126.834 54.2447C126.797 54.2635 126.76 54.2847 126.725 54.3081C126.667 54.3715 126.604 54.4292 126.563 54.4811C126.523 54.533 126.454 54.6253 126.39 54.7118C126.223 54.9136 126.067 55.1097 125.935 55.2885C125.802 55.4673 125.635 55.7095 125.456 55.9055C125.229 56.1895 124.98 56.4555 124.712 56.7014C124.528 56.8571 124.337 56.9897 124.135 57.1224C124.135 57.1224 124.089 57.1224 124.049 57.1628C124.009 57.2031 123.899 57.1224 123.87 56.9782C123.68 55.9805 124.072 54.1524 124.337 53.1893C124.366 53.0624 124.395 52.9644 124.435 52.8317C124.476 52.6991 124.493 52.6241 124.522 52.503C124.551 52.2839 124.493 52.1224 124.314 52.0647H124.17C124.062 52.1052 123.972 52.1829 123.916 52.2839C123.872 52.3675 123.833 52.4542 123.801 52.5434C123.762 52.6445 123.715 52.7428 123.663 52.8375C123.559 53.0451 123.461 53.2585 123.374 53.4719C123.288 53.6852 123.172 53.8929 123.063 54.0832C122.953 54.2735 122.936 54.3023 122.89 54.3081C122.81 54.2917 122.733 54.2666 122.659 54.2331C122.433 54.1013 122.168 54.0505 121.909 54.0889C121.629 54.1483 121.38 54.3058 121.206 54.533C121.091 54.6438 120.992 54.7699 120.912 54.9079C120.257 55.901 119.953 57.0842 120.047 58.27C120.15 58.6449 120.375 58.766 120.675 58.7083ZM115.946 55.1212C116.043 55.0687 116.127 54.9936 116.189 54.9023C116.251 54.811 116.29 54.7061 116.304 54.5964C116.356 54.3946 116.65 53.2816 116.725 53.0278C116.743 52.944 116.756 52.8593 116.765 52.7741V52.6645C116.719 52.5491 116.661 52.4915 116.586 52.4799C116.511 52.4684 116.535 52.4799 116.488 52.4799C116.463 52.4827 116.439 52.4908 116.417 52.5038C116.395 52.5167 116.376 52.5341 116.362 52.5549C116.233 52.6724 116.151 52.832 116.131 53.0047C115.998 53.4603 115.733 54.5215 115.664 54.7348C115.655 54.8154 115.655 54.8965 115.664 54.9771C115.686 55.0311 115.726 55.0754 115.778 55.1018C115.83 55.1283 115.89 55.1352 115.946 55.1212V55.1212ZM116.31 60.7556C116.941 60.5379 117.478 60.1105 117.832 59.5445C118.645 58.477 119.342 57.3269 119.914 56.1132C119.974 56.031 120.006 55.9321 120.006 55.8306C120.012 55.777 120.001 55.723 119.974 55.6763C119.947 55.6297 119.906 55.5928 119.856 55.5711C119.832 55.552 119.804 55.5384 119.774 55.5314C119.744 55.5245 119.713 55.5242 119.683 55.5307C119.639 55.5387 119.6 55.5635 119.574 55.5999C119.472 55.7107 119.383 55.8326 119.308 55.9632C119.164 56.2112 119.02 56.4765 118.899 56.7129C118.778 56.9494 118.634 57.2204 118.49 57.4684C118.085 58.1817 117.62 58.859 117.1 59.4926C116.888 59.7553 116.617 59.9646 116.31 60.1039C116.056 60.1501 115.912 60.1558 115.791 59.9136C115.701 59.733 115.644 59.5376 115.623 59.3369C115.573 58.1776 115.658 57.0163 115.877 55.8767C115.877 55.7556 115.837 55.6691 115.716 55.646C115.658 55.639 115.6 55.639 115.543 55.646C115.478 55.6667 115.418 55.7023 115.37 55.7498C114.885 56.465 114.989 58.3969 115.024 59.4465C115.059 59.7323 115.145 60.0095 115.277 60.2654C115.371 60.4498 115.523 60.598 115.71 60.6867C115.897 60.7755 116.108 60.7997 116.31 60.7556V60.7556ZM108.668 63.5007C108.734 63.4888 108.796 63.4596 108.846 63.416C108.897 63.3724 108.935 63.316 108.957 63.2527C109.068 62.9918 109.162 62.7241 109.239 62.4511C109.372 62.0186 109.481 61.6149 109.597 61.2054C109.712 60.796 109.804 60.398 109.914 59.9944C110.079 59.3963 110.334 58.8267 110.669 58.3046C110.696 58.2276 110.742 58.1585 110.802 58.104C110.863 58.0495 110.936 58.0114 111.016 57.9932C111.098 58.0691 111.172 58.1543 111.235 58.247C111.31 58.3334 111.39 58.4143 111.477 58.4892C111.611 58.626 111.778 58.7272 111.961 58.7836C112.144 58.84 112.338 58.8498 112.526 58.8121C113.172 58.691 113.997 57.7395 114.355 57.2089C114.424 57.1053 114.475 56.9901 114.505 56.8686C114.517 56.8164 114.512 56.7615 114.49 56.7124C114.468 56.6633 114.431 56.6229 114.383 56.5976C114.317 56.5788 114.248 56.5788 114.182 56.5976C114.135 56.5976 114.112 56.5976 114.095 56.638C114 56.7255 113.913 56.8221 113.836 56.9263C113.507 57.33 112.821 58.1547 112.411 58.2354C112.287 58.2476 112.161 58.2256 112.049 58.1717C111.936 58.1178 111.84 58.0342 111.771 57.9298C111.697 57.8585 111.64 57.7719 111.604 57.676C111.546 57.593 111.48 57.5158 111.408 57.4453C111.353 57.3713 111.278 57.3138 111.193 57.2793C111.108 57.2447 111.014 57.2343 110.923 57.2493C110.823 57.267 110.73 57.3107 110.652 57.3761C110.037 58.0058 109.601 58.7882 109.389 59.6426L108.813 61.6437C108.681 61.4195 108.638 61.1542 108.691 60.8998C108.75 60.134 108.86 59.373 109.02 58.6218C109.141 58.1201 109.262 57.6126 109.355 57.1166C109.389 56.9395 109.389 56.7574 109.355 56.5803C109.355 56.4649 109.297 56.4073 109.147 56.3842H109.078C109 56.396 108.93 56.4373 108.882 56.4996C108.836 56.6034 108.813 56.7302 108.761 56.8571C108.251 58.7358 108.012 60.6778 108.051 62.6241C108.053 62.725 108.065 62.8254 108.086 62.924C108.124 63.0206 108.151 63.1212 108.167 63.2239C108.187 63.3028 108.231 63.3734 108.293 63.4261C108.355 63.4788 108.432 63.5109 108.513 63.518C108.513 63.518 108.559 63.518 108.565 63.518L108.668 63.5007ZM102.365 60.3404C102.365 60.3692 102.29 60.3404 102.215 60.3404C102.14 60.3404 102.163 60.3058 102.152 60.2366C102.267 59.4696 102.826 58.1547 103.57 57.8894C103.686 57.8433 103.761 57.8894 103.813 58.0336C103.957 58.7833 102.901 59.9021 102.365 60.3404ZM103.12 63.1547C104.718 62.8433 106.696 60.0117 107.584 58.6103C107.646 58.5309 107.693 58.441 107.723 58.345C107.745 58.282 107.743 58.213 107.717 58.1513C107.692 58.0895 107.644 58.0394 107.584 58.0105C107.559 57.9934 107.531 57.9815 107.501 57.9755C107.471 57.9696 107.441 57.9697 107.411 57.9759C107.344 57.9915 107.283 58.0278 107.238 58.0797C107.18 58.1605 107.123 58.2412 107.071 58.3277C107.019 58.4142 106.932 58.4949 106.875 58.5814C106.65 58.8929 106.419 59.1985 106.217 59.5042C106.016 59.8098 105.756 60.1443 105.531 60.45C104.928 61.3254 104.115 62.0353 103.167 62.5145C102.723 62.6011 102.469 62.653 102.273 62.1339C102.11 61.9018 102.03 61.6212 102.048 61.3381C102.044 61.2878 102.056 61.2378 102.082 61.1945C102.108 61.1512 102.146 61.1168 102.192 61.0959C102.815 60.8188 103.353 60.3803 103.749 59.8256C104.145 59.271 104.386 58.6204 104.447 57.9413C104.453 57.8324 104.435 57.7236 104.391 57.6234C104.348 57.5232 104.282 57.4345 104.199 57.3644C104.115 57.2943 104.016 57.2448 103.91 57.2198C103.804 57.1948 103.694 57.195 103.588 57.2204H103.495C103.471 57.2455 103.438 57.26 103.403 57.2608C102.209 57.6876 101.621 59.4811 101.437 60.646C101.389 61.0112 101.405 61.3819 101.483 61.7418C101.521 62.0139 101.619 62.274 101.771 62.503C101.874 62.7602 102.07 62.9695 102.32 63.09C102.569 63.2105 102.855 63.2336 103.12 63.1547V63.1547ZM97.6014 56.5976C97.556 56.5254 97.526 56.4446 97.5131 56.3603C97.5002 56.276 97.5047 56.1899 97.5265 56.1074C97.7495 54.8958 98.0756 53.7053 98.5011 52.5491C98.5703 52.4223 98.6222 52.3358 98.6972 52.3185C98.7451 52.3134 98.7934 52.3134 98.8414 52.3185C98.8232 52.2994 98.8111 52.2753 98.8067 52.2493C98.8067 52.2493 98.8067 52.2493 98.8414 52.2896L98.4607 53.6622C98.1666 54.631 97.884 55.5999 97.6245 56.5457C97.6245 56.5457 97.5957 56.5688 97.6014 56.5976ZM97.5611 66.5111C98.0282 66.4188 98.6164 65.4903 98.7952 65.0463C99.1585 64.3081 99.5392 63.5353 99.9082 62.7395C100.277 61.9436 100.646 61.1766 101.01 60.4327C101.1 60.2216 101.179 60.006 101.246 59.7867C101.271 59.7424 101.287 59.6936 101.293 59.6431C101.299 59.5927 101.295 59.5415 101.281 59.4926C101.281 59.3658 101.24 59.285 101.119 59.262C101.062 59.2547 101.004 59.2547 100.946 59.262C100.785 59.2966 100.646 59.7002 100.6 59.8387C99.8506 61.4534 98.9855 63.2989 98.1666 64.9252C98.0801 65.1097 97.7514 65.7498 97.5438 65.7902C97.4918 65.8027 97.4371 65.7947 97.3909 65.7678C97.3447 65.741 97.3106 65.6974 97.2958 65.646C97.0742 65.2108 96.9652 64.7271 96.9786 64.2389C96.8171 62.7856 96.6499 60.202 97.2266 58.8064C97.9821 57.0013 99.3315 53.2816 99.395 51.3438C99.395 51.1535 99.32 50.969 99.0951 50.9229C98.9971 50.9229 98.9509 50.9229 98.9279 50.9229C98.8067 50.9551 98.6994 51.026 98.6222 51.1247C97.3362 53.0336 96.7133 56.7821 96.425 59.0255C96.4051 59.5656 96.2797 60.0965 96.0559 60.5884C95.9751 60.7037 95.9348 60.8536 96.0559 60.9517C96.1532 61.0534 96.2228 61.1784 96.2581 61.3147C96.2935 61.451 96.2933 61.594 96.2577 61.7302C96.2215 62.8112 96.293 63.893 96.4711 64.9598L96.5345 65.2827C96.558 65.4312 96.5927 65.5777 96.6383 65.721C96.771 66.0382 97.1343 66.5918 97.5611 66.5111ZM90.26 62.6818C90.26 62.6818 90.1908 62.6818 90.1159 62.6818C90.0409 62.6818 90.064 62.6414 90.0467 62.578C90.1678 61.811 90.7272 60.4961 91.4711 60.2308C91.5864 60.1847 91.6614 60.2308 91.7133 60.375C91.8575 61.1189 90.7906 62.2377 90.26 62.6818ZM91.0213 65.4961C92.6187 65.1847 94.5968 62.3531 95.4792 60.9517C95.5443 60.8737 95.5934 60.7835 95.6234 60.6864C95.6456 60.6234 95.6437 60.5544 95.6182 60.4927C95.5926 60.4309 95.5452 60.3808 95.4849 60.3519C95.4604 60.3338 95.4322 60.3213 95.4023 60.3153C95.3724 60.3093 95.3415 60.31 95.3119 60.3173C95.2448 60.3329 95.1843 60.3692 95.1389 60.4211C95.0813 60.5019 95.0236 60.5826 94.9717 60.6691C94.9198 60.7556 94.8333 60.8363 94.7756 60.9228C94.5507 61.2343 94.32 61.5399 94.1182 61.8456C93.9163 62.1512 93.6568 62.4857 93.4319 62.7914C92.8275 63.6675 92.0124 64.3775 91.0616 64.856C90.6234 64.9425 90.3696 64.9944 90.1735 64.4753C90.0105 64.2432 89.9312 63.9626 89.9486 63.6795C89.9452 63.6292 89.9572 63.5792 89.9829 63.5359C90.0087 63.4926 90.047 63.4582 90.0928 63.4373C90.7158 63.1602 91.2533 62.7217 91.6498 62.167C92.0463 61.6124 92.2872 60.9618 92.3477 60.2827C92.3543 60.1739 92.3353 60.065 92.2922 59.9648C92.2492 59.8646 92.1832 59.7759 92.0997 59.7058C92.0161 59.6357 91.9173 59.5862 91.8111 59.5612C91.705 59.5362 91.5945 59.5364 91.4884 59.5618H91.3961C91.3719 59.5869 91.3387 59.6014 91.3039 59.6022C90.1101 60.029 89.5161 61.8225 89.3373 62.9874C89.2878 63.3523 89.3014 63.7229 89.3777 64.0832C89.4206 64.3549 89.5208 64.6144 89.6718 64.8444C89.7763 65.1005 89.9724 65.3085 90.2218 65.4279C90.4713 65.5473 90.7563 65.5696 91.0213 65.4903V65.4961ZM85.0236 69.36C85.2205 69.2938 85.4021 69.1887 85.5576 69.051C85.7131 68.9133 85.8394 68.7458 85.929 68.5584C86.5057 67.5607 87.117 66.2516 87.6591 65.0982C88.1378 64.0889 88.7664 62.7395 89.1239 62.0935C89.1419 62.0734 89.1549 62.0494 89.1619 62.0234C89.1689 61.9973 89.1697 61.97 89.1643 61.9436C89.1897 61.8815 89.1901 61.812 89.1654 61.7496C89.1406 61.6873 89.0927 61.6369 89.0317 61.6091C88.9745 61.5985 88.9158 61.5985 88.8586 61.6091H88.8125C88.8125 61.6091 88.8125 61.6091 88.7721 61.6437C88.6728 61.7009 88.5895 61.7822 88.5299 61.8802C88.4723 61.984 88.4031 62.0936 88.3512 62.2031C87.8091 63.0047 86.3558 66.4592 85.6176 67.8721C85.5311 68.0393 85.4388 68.195 85.3523 68.3565C85.2575 68.5108 85.11 68.6255 84.9371 68.6795C84.5392 68.4719 84.568 68.0278 84.5276 67.6818C84.4295 66.89 84.3967 66.0914 84.4296 65.2942C84.5797 63.0617 84.8705 60.8408 85.3004 58.6449C85.3271 58.5018 85.3964 58.3701 85.4994 58.2671C85.6023 58.1642 85.734 58.0948 85.8771 58.0682L90.7733 56.6726C90.8886 56.6207 90.9809 56.6034 91.0732 56.563C91.1721 56.5367 91.2686 56.502 91.3615 56.4592C91.4053 56.4339 91.439 56.3942 91.4568 56.3469C91.4747 56.2996 91.4757 56.2476 91.4596 56.1997C91.4019 56.044 91.3154 55.9863 91.2289 56.0036L90.6522 56.1132L90.3696 56.1651C89.741 56.3611 89.0605 56.563 88.305 56.7418C87.5495 56.9205 86.869 57.1628 86.2347 57.3588H86.1136C86.0739 57.3851 86.0283 57.401 85.9809 57.405C85.8792 57.414 85.7769 57.414 85.6753 57.405C85.6521 57.2927 85.6521 57.177 85.6753 57.0647C85.6753 56.9955 85.7156 56.8917 85.7214 56.8167C85.9059 56.1362 86.0905 55.473 86.2289 54.7983C86.2869 54.6262 86.2869 54.4398 86.2289 54.2677C86.2097 54.2219 86.1747 54.1845 86.1302 54.1622C86.0858 54.14 86.0349 54.1345 85.9867 54.1466C85.831 54.1466 85.6926 54.3485 85.583 54.6541C85.508 54.8675 85.4215 55.0693 85.3696 55.2712C85.3177 55.473 85.2312 55.6864 85.1505 55.8882L84.7929 57.405C84.7691 57.5298 84.7087 57.6447 84.6193 57.7351C84.53 57.8255 84.4157 57.8872 84.2912 57.9125L83.0916 58.2816C82.6822 58.4142 82.2727 58.5411 81.8633 58.691L81.5345 58.8237C81.448 58.864 81.3615 58.9332 81.252 58.9794C81.1424 59.0255 81.1309 59.1178 81.1828 59.2562C81.2018 59.2893 81.2297 59.3166 81.2633 59.3349C81.2969 59.3532 81.3349 59.3619 81.3731 59.36C81.4589 59.3752 81.5467 59.3752 81.6326 59.36C81.8171 59.3196 82.019 59.2389 82.2093 59.1812C82.5092 59.0947 82.8206 58.9909 83.1378 58.8813C83.455 58.7718 83.7145 58.6622 84.0432 58.5814L84.2277 58.5468C84.5046 58.4949 84.5507 58.6103 84.5046 58.9736C84.4584 59.3369 84.3719 59.7925 84.2969 60.2654C83.9336 62.503 83.5761 65.8652 84.0086 68.1143C84.1355 68.6679 84.4469 69.4753 85.0236 69.36ZM78.1954 70.2193C78.178 70.2204 78.1605 70.2173 78.1444 70.2103C78.1283 70.2033 78.1142 70.1925 78.1032 70.1789C78.0485 70.1335 78.0117 70.0701 77.9994 70.0001C77.9832 69.9769 77.9722 69.9504 77.9673 69.9225C77.9623 69.8947 77.9634 69.8661 77.9705 69.8386C78.0982 69.206 78.4021 68.6222 78.8471 68.1547C78.9064 68.497 78.8956 68.8478 78.8153 69.1859C78.735 69.5239 78.5869 69.8421 78.38 70.1212C78.3635 70.1524 78.3385 70.1782 78.3078 70.1956C78.2772 70.2129 78.2422 70.2212 78.207 70.2193H78.1954ZM78.2704 70.8825C79.2969 70.6864 79.6199 68.6506 79.5046 67.6645C79.4972 67.5112 79.5222 67.358 79.5778 67.2149C79.6334 67.0719 79.7185 66.9421 79.8275 66.834L81.4826 65.1039C81.9786 64.5272 82.4803 64.0486 83.0224 63.4834C83.148 63.3619 83.2514 63.2194 83.3281 63.0624C83.4204 62.924 83.3742 62.8144 83.207 62.7279C83.1842 62.7085 83.1572 62.6948 83.1282 62.6878C83.0991 62.6807 83.0688 62.6807 83.0397 62.6876C82.9651 62.7042 82.8969 62.7423 82.8437 62.7971C82.7943 62.8681 82.7316 62.9288 82.6591 62.9759L79.7756 65.9863C79.6859 66.0911 79.5832 66.1842 79.47 66.2631C79.4105 66.2084 79.3582 66.1464 79.3142 66.0786C79.073 65.2611 78.7901 64.4565 78.4665 63.6679C78.4115 63.5522 78.3709 63.4302 78.3454 63.3046C78.3164 63.1835 78.299 63.0599 78.2935 62.9355C78.2503 62.5063 78.3653 62.076 78.617 61.7255C78.8687 61.3751 79.2397 61.1286 79.6603 61.0324C79.7352 61.0324 79.7814 61.0324 79.7987 60.9805C79.8322 60.9614 79.8601 60.9337 79.8795 60.9002C79.8989 60.8668 79.9092 60.8289 79.9092 60.7902C79.9092 60.7516 79.8989 60.7136 79.8795 60.6802C79.8601 60.6468 79.8322 60.6191 79.7987 60.5999C79.7184 60.5365 79.6226 60.4956 79.5213 60.4814C79.4199 60.4672 79.3166 60.4802 79.222 60.5192C78.9666 60.5666 78.7303 60.6867 78.5415 60.8652C78.1868 61.1864 77.9272 61.5988 77.7909 62.0574C77.6547 62.5161 77.647 63.0034 77.7687 63.4661C77.8421 63.7672 77.9385 64.0621 78.057 64.3485C78.3543 65 78.5842 65.6802 78.7433 66.3784C78.802 66.5623 78.8122 66.7583 78.7728 66.9473C78.7334 67.1362 78.6457 67.3118 78.5184 67.4569C77.9008 68.1511 77.4893 69.0039 77.3304 69.9194C77.316 70.1153 77.364 70.3106 77.4676 70.4775C77.5713 70.6443 77.7251 70.774 77.9071 70.8479C78.0274 70.8897 78.156 70.9015 78.2819 70.8825H78.2704ZM70.6926 67.4857H70.6637C70.6422 66.502 70.9599 65.5408 71.5634 64.7637C71.6839 64.5859 71.8575 64.4507 72.0593 64.3773C72.1773 64.3608 72.2974 64.3789 72.4054 64.4292C72.4656 64.4525 72.5152 64.4971 72.5449 64.5544C72.5747 64.6117 72.5824 64.6779 72.5668 64.7406C72.5557 64.7913 72.5296 64.8375 72.4919 64.8733C72.0447 65.7649 71.5178 66.6142 70.9175 67.4107C70.8583 67.4616 70.7821 67.4883 70.7041 67.4857H70.6926ZM70.6407 68.3623C70.9463 68.3046 71.275 67.9009 71.448 67.676C71.921 67.0281 72.3543 66.3521 72.7456 65.6518C72.8123 65.5542 72.8721 65.4521 72.9244 65.3461C72.9985 65.2248 73.1015 65.1237 73.2243 65.052C73.1652 65.6883 73.1846 66.3294 73.2819 66.9609C73.3685 67.405 73.5991 67.601 73.9913 67.5376C74.0617 67.532 74.1304 67.5124 74.1931 67.4799C75.1389 67.1224 76.4999 65.2539 77.0305 64.4523L77.0997 64.3427C77.0997 64.3427 77.0997 64.2908 77.1401 64.262C77.1401 64.0947 77.1055 63.9794 76.9728 63.9332C76.9488 63.9163 76.9216 63.9044 76.8928 63.8985C76.864 63.8925 76.8344 63.8926 76.8056 63.8986C76.7768 63.8986 76.7595 63.8986 76.696 63.9678C76.6363 64.0176 76.5822 64.0736 76.5345 64.1351C76.4769 64.2273 76.4192 64.285 76.3615 64.3658C76.1972 64.5493 76.0432 64.7418 75.9002 64.9425C75.7445 65.1443 75.6003 65.3635 75.4215 65.5595C75.1961 65.8432 74.9493 66.1093 74.6833 66.3554C74.493 66.5111 74.3027 66.6495 74.1066 66.7764C74.0953 66.7896 74.0811 66.8002 74.0651 66.8071C74.0492 66.8141 74.0318 66.8174 74.0144 66.8167C73.9221 66.8167 73.8644 66.7764 73.8356 66.6322C73.6453 65.6403 74.0374 63.8063 74.3027 62.849C74.3293 62.7258 74.364 62.6044 74.4065 62.4857C74.4065 62.3877 74.4584 62.2839 74.4873 62.157C74.4873 61.9378 74.4584 61.7764 74.2796 61.7187C74.2318 61.7127 74.1833 61.7127 74.1355 61.7187C74.0605 61.7187 73.9798 61.7937 73.8817 61.9378C73.8372 62.0196 73.7987 62.1043 73.7664 62.1916C73.7145 62.3012 73.6856 62.3992 73.6337 62.4857C73.5268 62.6921 73.4306 62.9038 73.3454 63.1201C73.2416 63.3335 73.1378 63.5411 73.034 63.7314C72.9302 63.9217 72.9071 63.9505 72.861 63.9563C72.7788 63.9435 72.6991 63.9182 72.6245 63.8813C72.3982 63.7496 72.1338 63.6987 71.8748 63.7372C71.5953 63.8012 71.3467 63.9602 71.1712 64.187C71.0584 64.2975 70.9596 64.4214 70.8771 64.5561C70.2223 65.5492 69.9179 66.7324 70.0121 67.9182C70.1332 68.27 70.3523 68.4488 70.6522 68.3623H70.6407ZM59.5219 74.7925C59.5819 74.7804 59.639 74.7562 59.6895 74.7216C59.74 74.6869 59.783 74.6424 59.816 74.5907C59.9131 74.488 59.9878 74.3662 60.0351 74.2331C60.087 74.1062 60.1274 73.9505 60.1735 73.8237C60.3177 73.4373 60.433 73.0336 60.5484 72.6241C60.6637 72.2147 60.7733 71.811 60.8829 71.4015C61.1655 70.4845 61.7249 68.518 62.192 67.0878C62.4842 66.2343 62.7956 65.3558 63.1262 64.4523C63.7181 62.8121 64.4695 61.234 65.3696 59.7406C65.695 59.2061 66.1061 58.7287 66.5864 58.3277C66.6931 58.2211 66.8266 58.1454 66.9728 58.1086C67.2035 58.0624 67.3823 58.2239 67.5495 58.5757C67.6835 58.8896 67.756 59.2263 67.7629 59.5676C67.9013 62.2608 67.1862 65.4788 65.1908 67.405C64.9815 67.6377 64.7338 67.8328 64.4584 67.9817C64.1528 68.0393 63.9336 67.9817 63.8817 67.6645C63.8213 67.4133 63.8256 67.1508 63.8942 66.9017C63.9628 66.6526 64.0934 66.425 64.2739 66.24C64.3546 66.1535 64.4411 66.0901 64.5161 66.0036L64.7583 65.7383C64.7915 65.6939 64.8103 65.6404 64.8122 65.585C64.814 65.5296 64.7989 65.4749 64.7687 65.4284C64.7385 65.3819 64.6948 65.3458 64.6435 65.3249C64.5921 65.304 64.5356 65.2993 64.4815 65.3115H64.3892C64.3644 65.3146 64.3417 65.327 64.3258 65.3461C63.9749 65.5748 63.6873 65.8881 63.4896 66.2573C63.3307 66.523 63.2374 66.8226 63.2173 67.1315C63.1973 67.4404 63.251 67.7496 63.3742 68.0336C63.4018 68.1425 63.4515 68.2445 63.5202 68.3333C63.589 68.4222 63.6752 68.496 63.7737 68.55C63.8721 68.6041 63.9806 68.6374 64.0925 68.6478C64.2043 68.6581 64.3171 68.6454 64.4238 68.6103C65.5772 68.3854 66.8517 66.5053 67.3073 65.4788C68.1394 63.6595 68.5061 61.6618 68.3742 59.6656C68.3681 59.4993 68.3507 59.3337 68.3223 59.1697C68.2744 59.0126 68.2359 58.8527 68.207 58.691C68.1598 58.4346 68.0554 58.1921 67.9013 57.9817C67.8036 57.8109 67.6548 57.675 67.4758 57.5933C67.2968 57.5116 67.0967 57.488 66.9036 57.5261C66.7857 57.5564 66.6701 57.5949 66.5576 57.6414C65.658 58.0797 64.7525 59.4811 63.8702 61.2573C63.4434 62.157 63.0282 63.1278 62.6245 64.1697C61.8575 66.2689 61.1655 68.3219 60.6464 70.1039C60.3869 70.992 60.1735 71.7591 60.0236 72.3358C59.9198 72.676 59.8275 72.9817 59.7237 73.2873C59.7232 73.3176 59.7136 73.347 59.6961 73.3717C59.6786 73.3964 59.6541 73.4153 59.6257 73.4257C59.6033 73.4336 59.5788 73.4336 59.5565 73.4257C59.5276 73.4257 59.4988 73.3681 59.4757 73.2527C59.461 73.1746 59.461 73.0944 59.4757 73.0163C59.3122 70.8099 59.3605 68.5929 59.6199 66.3957C59.8551 64.2162 60.2152 62.0519 60.6983 59.9136C60.7502 59.6887 60.8021 59.435 60.8483 59.2158C60.8944 58.9967 60.9578 58.7602 60.9867 58.5353C61.0097 58.4172 61.0097 58.2958 60.9867 58.1778C60.9521 58.0163 60.8252 57.9701 60.6637 57.999C60.6217 58.0083 60.5847 58.033 60.5599 58.0682C60.4907 58.247 60.433 58.4027 60.3696 58.5872C59.7708 61.0957 59.3221 63.6377 59.0259 66.1997C58.7186 68.7765 58.6896 71.379 58.9394 73.9621C58.9765 74.0486 59.0017 74.1398 59.0144 74.2331C59.0207 74.343 59.0481 74.4507 59.0951 74.5503C59.1333 74.6291 59.1946 74.6945 59.2708 74.7378C59.347 74.781 59.4346 74.8001 59.5219 74.7925Z" stroke="#FF5757" stroke-width="0.61"/>
</g>
<defs>
<clipPath id="clip0">
<rect width="188.51" height="75" fill="white"/>
</clipPath>
</defs>
</svg>
